<svg xmlns="http://www.w3.org/2000/svg" viewBox="0 0 283.46 283.46"><defs><style>.cls-1{fill:#fff;}</style></defs><title>Asset 1</title><g id="Layer_2" data-name="Layer 2"><path class="cls-1" d="M141.73,0A141.73,141.73,0,1,0,283.46,141.73,141.74,141.74,0,0,0,141.73,0Zm0,265.75a124,124,0,1,1,124-124A124,124,0,0,1,141.73,265.75Z"/><path class="cls-1" d="M207.48,88.58l25.58,44.29,13-13-28.32-49H76L65.75,88.58h36.76L91.87,128.29,73.24,117.53l-4.75,17.72L87.13,146,74,194.88H53.15V212.6h62V194.88H92.37L103,155.18l29.86,17.24,29.87-17.24,10.64,39.7H150.59V212.6h62V194.88H191.72L178.62,146l13-7.51,13.11,22.69,13-13-19.59-33.93-24.24,14L163.24,88.58ZM158,137.46,132.87,152l-25.11-14.5,13.09-48.88h24Z"/><path class="cls-1" d="M132.87,26.58a17.72,17.72,0,1,0,17.72,17.71A17.71,17.71,0,0,0,132.87,26.58Zm0,24.8A7.09,7.09,0,1,1,140,44.29,7.08,7.08,0,0,1,132.87,51.38Z"/></g></svg>